<?xml version="1.0" encoding="utf-8"?>
<!-- Generator: Adobe Illustrator 26.0.1, SVG Export Plug-In . SVG Version: 6.00 Build 0)  -->
<svg version="1.1" id="Layer_1" xmlns="http://www.w3.org/2000/svg" xmlns:xlink="http://www.w3.org/1999/xlink" x="0px" y="0px"
	 viewBox="0 0 1366 768" style="enable-background:new 0 0 1366 768;" xml:space="preserve">
<style type="text/css">
	.st0{fill:url(#SVGID_1_);stroke:#000000;stroke-miterlimit:10;}
	.st1{fill:url(#SVGID_00000161601906617240606710000017137109005641887390_);}
	.st2{fill:url(#SVGID_00000014611544439815545170000017054391638608793008_);stroke:#000000;stroke-miterlimit:10;}
	.st3{fill:#FFFFFF;stroke:#000000;stroke-miterlimit:10;}
	.st4{stroke:#000000;stroke-miterlimit:10;}
</style>
<g>
	<linearGradient id="SVGID_1_" gradientUnits="userSpaceOnUse" x1="285.4124" y1="475.7982" x2="1104.8588" y2="475.7982">
		<stop  offset="0" style="stop-color:#FFFFFF"/>
		<stop  offset="0.5757" style="stop-color:#B3B3B3"/>
	</linearGradient>
	<path class="st0" d="M270.7,375.6c18.1,22.5,171.9,206.3,426.8,200.2c232-5.6,371-164.3,392.7-189.8"/>
	<g>
		
			<linearGradient id="SVGID_00000175287246561636056260000006530690921460114822_" gradientUnits="userSpaceOnUse" x1="269.5" y1="373.9341" x2="1096.5" y2="373.9341">
			<stop  offset="0" style="stop-color:#FFFFFF"/>
			<stop  offset="0.5856" style="stop-color:#00D42F"/>
		</linearGradient>
		
			<ellipse style="fill:url(#SVGID_00000175287246561636056260000006530690921460114822_);" cx="683" cy="373.9" rx="413.5" ry="100.4"/>
		<path d="M683,274c110.5,0,214.4,10.5,292.5,29.5c37.9,9.2,67.7,20,88.5,32c21.3,12.3,32,25.2,32,38.4s-10.8,26.2-32,38.4
			c-20.8,12-50.5,22.7-88.5,32c-78.1,19-182,29.5-292.5,29.5c-110.5,0-214.4-10.5-292.5-29.5c-37.9-9.2-67.7-20-88.5-32
			c-21.3-12.3-32-25.2-32-38.4s10.8-26.2,32-38.4c20.8-12,50.5-22.7,88.5-32C468.6,284.5,572.5,274,683,274 M683,273
			c-228.6,0-414,45.2-414,100.9s185.4,100.9,414,100.9s414-45.2,414-100.9S911.6,273,683,273L683,273z"/>
	</g>
	
		<linearGradient id="SVGID_00000047029207136337726150000008880140307686041783_" gradientUnits="userSpaceOnUse" x1="296.3719" y1="375.6446" x2="1069.6281" y2="375.6446">
		<stop  offset="0" style="stop-color:#FFFFFF"/>
		<stop  offset="0.5757" style="stop-color:#B3B3B3"/>
	</linearGradient>
	
		<ellipse style="fill:url(#SVGID_00000047029207136337726150000008880140307686041783_);stroke:#000000;stroke-miterlimit:10;" cx="683" cy="375.6" rx="386.6" ry="71.9"/>
	<path class="st3" d="M677.9,661.3"/>
	<g>
		<path class="st4" d="M701.8,428.7h-31.6c-3.3,0-6-2.7-6-6V322.6h31.6c3.3,0,6,2.7,6,6V428.7z"/>
		<path class="st3" d="M736,356.8v31.6c0,3.3-2.7,6-6,6H630v-31.6c0-3.3,2.7-6,6-6H736z"/>
	</g>
</g>
</svg>
